HIERARCHY
ROOT hip
{
	OFFSET 0.000000 0.000000 0.000000 
	CHANNELS 6 Xposition Yposition Zposition Xrotation Zrotation Yrotation
	JOINT abdomen
	{
		OFFSET 0.000000 3.402643 0.000000 
		CHANNELS 3 Xrotation Zrotation Yrotation
		JOINT chest
		{
			OFFSET 0.000000 8.438565 -0.680529 
			CHANNELS 3 Xrotation Zrotation Yrotation
			JOINT neck
			{
				OFFSET 0.000000 10.207942 -0.272212 
				CHANNELS 3 Xrotation Zrotation Yrotation
				JOINT head
				{
					OFFSET 0.000000 3.130431 0.000000 
					CHANNELS 3 Xrotation Zrotation Yrotation
					End Site
					{
						OFFSET 0.000000 3.130435 0.000000 
					}
				}
			}
			JOINT lCollar
			{
				OFFSET 3.470700 6.669187 -0.816635 
				CHANNELS 3 Yrotation Zrotation Xrotation
				JOINT lShldr
				{
					OFFSET 3.198488 0.000000 0.000000 
					CHANNELS 3 Zrotation Yrotation Xrotation
					JOINT lForeArm
					{
						OFFSET 10.139888 0.000000 0.000000 
						CHANNELS 3 Yrotation Zrotation Xrotation
						JOINT lHand
						{
							OFFSET 8.370511 0.000000 0.000000 
							CHANNELS 3 Zrotation Yrotation Xrotation
							End Site
							{
								OFFSET 4.083176 0.000000 0.000000 
							}
						}
					}
				}
			}
			JOINT rCollar
			{
				OFFSET -3.470700 6.669187 -0.816635 
				CHANNELS 3 Yrotation Zrotation Xrotation
				JOINT rShldr
				{
					OFFSET -3.198488 0.000000 0.000000 
					CHANNELS 3 Zrotation Yrotation Xrotation
					JOINT rForeArm
					{
						OFFSET -10.139888 0.000000 0.000000 
						CHANNELS 3 Yrotation Zrotation Xrotation
						JOINT rHand
						{
							OFFSET -8.370511 0.000000 0.000000 
							CHANNELS 3 Zrotation Yrotation Xrotation
							End Site
							{
								OFFSET -4.083176 0.000000 0.000000 
							}
						}
					}
				}
			}
		}
	}
	JOINT lThigh
	{
		OFFSET 5.308129 -1.633274 1.361059 
		CHANNELS 3 Xrotation Zrotation Yrotation
		JOINT lShin
		{
			OFFSET -2.041588 -20.007561 0.000000 
			CHANNELS 3 Xrotation Zrotation Yrotation
			JOINT lFoot
			{
				OFFSET 0.000000 -19.190928 -1.224953 
				CHANNELS 3 Xrotation Yrotation Zrotation
				End Site
				{
					OFFSET 0.000000 -2.449906 4.627600 
				}
			}
		}
	}
	JOINT rThigh
	{
		OFFSET -5.308129 -1.633274 1.361059 
		CHANNELS 3 Xrotation Zrotation Yrotation
		JOINT rShin
		{
			OFFSET 2.041588 -20.007561 0.000000 
			CHANNELS 3 Xrotation Zrotation Yrotation
			JOINT rFoot
			{
				OFFSET 0.000000 -19.190928 -1.224953 
				CHANNELS 3 Xrotation Yrotation Zrotation
				End Site
				{
					OFFSET 0.000000 -2.449906 4.627600 
				}
			}
		}
	}
}
MOTION
Frames: 16
Frame Time: 0.016667
3.405432 52.439152 12.629498 -9.670892 -13.965664 -56.139034 22.183594 2.749871 -0.958845 4.844795 1.619261 -4.219593 28.983644 19.460539 9.254955 33.650955 2.067361 17.531363 -25.888033 -4.820311 -0.246534 -56.926975 -3.230077 -3.396282 -81.561806 5.000000 -6.023275 2.219796 -22.479815 45.000000 14.272116 -8.794234 0.461102 90.000000 44.271320 45.000000 92.941872 -3.452695 0.300327 12.350808 -30.000000 -45.000000 20.492945 17.761135 13.189705 8.974797 -3.590716 -0.665746 -5.132871 5.347283 -12.136550 21.594679 -17.524595 -4.325158 4.355115 3.075195 0.285399 -5.085051 -9.848559 13.312503 
3.414679 52.438648 12.544608 -9.548965 -14.000666 -56.110451 22.182919 2.814499 -0.933953 4.845511 1.570411 -4.248874 28.959024 19.450134 9.247245 33.591740 2.029676 17.570049 -25.858692 -4.810559 -0.246032 -56.930717 -3.310762 -3.343406 -81.624680 5.000000 -5.953459 2.317502 -22.550774 45.000000 14.272194 -8.803986 0.461607 90.000000 44.271904 45.000000 92.971710 -3.520790 0.295604 12.387260 -30.000000 -45.000000 20.384470 17.966270 13.192975 8.939536 -3.574285 -0.652323 -5.077473 5.297510 -12.190423 21.590269 -17.333971 -4.131590 4.137075 3.043389 0.280615 -5.088834 -10.035195 13.466095 
3.430538 52.439217 12.466849 -9.424772 -14.032388 -56.088444 22.182281 2.882367 -0.917820 4.846587 1.521577 -4.278160 28.936066 19.449253 9.238074 33.541897 1.992113 17.598982 -25.830135 -4.806304 -0.255609 -56.914940 -3.390310 -3.291099 -81.685356 5.000000 -5.895875 2.412250 -22.609503 45.000000 14.262507 -8.813738 0.462111 90.000000 44.264824 45.000000 93.001381 -3.579151 0.295776 12.407515 -30.000000 -45.000000 20.299564 18.202127 13.195148 8.921954 -3.592813 -0.642338 -5.066350 5.169142 -12.277153 21.587791 -17.155598 -3.943838 3.889460 3.030535 0.274362 -5.037692 -10.159421 13.630062 
3.452207 52.441719 12.395943 -9.316417 -14.055366 -56.075363 22.211632 2.967664 -0.894385 4.857318 1.502069 -4.278162 28.888493 19.437963 9.217939 33.526558 1.973389 17.608738 -25.810785 -4.845317 -0.257627 -56.842216 -3.450217 -3.232379 -81.758026 5.000000 -5.847601 2.499604 -22.699547 45.000000 14.233369 -8.833242 0.463120 90.000000 44.286156 45.000000 93.000786 -3.618257 0.325012 12.385489 -30.000000 -45.000000 20.188288 18.346468 13.222441 8.900777 -3.593864 -0.631282 -5.025462 5.191114 -12.267892 21.542456 -16.982803 -3.792469 3.697744 2.974342 0.241501 -4.994535 -10.238650 13.725639 
3.480999 52.445343 12.333601 -9.203465 -14.071715 -56.082481 22.231945 3.058276 -0.858191 4.868050 1.482562 -4.287930 28.829529 19.417141 9.199265 33.511211 1.954667 17.618162 -25.801195 -4.884329 -0.259643 -56.760281 -3.506853 -3.160327 -81.832382 5.000000 -5.808714 2.587930 -22.777060 45.000000 14.204232 -8.852748 0.464130 90.000000 44.308781 45.000000 92.999786 -3.637883 0.359746 12.354874 -30.000000 -45.000000 20.087437 18.535131 13.269254 8.896970 -3.600394 -0.670639 -5.000817 5.078301 -12.347566 21.505871 -16.830759 -3.650636 3.493108 2.916454 0.208154 -4.952074 -10.269670 13.831161 
3.516862 52.448734 12.280746 -9.106174 -14.061998 -56.057545 22.239836 3.172964 -0.855556 4.868766 1.463042 -4.307459 28.776922 19.395424 9.168180 33.489059 1.945254 17.627918 -25.781889 -4.933094 -0.262163 -56.679550 -3.542497 -3.121824 -81.908119 5.000000 -5.760494 2.616350 -22.829247 45.000000 14.184861 -8.872252 0.465140 90.000000 44.326488 45.000000 92.989838 -3.676975 0.369518 12.326507 -30.000000 -45.000000 19.936277 18.659536 13.236634 8.885972 -3.629211 -0.651548 -4.942565 5.070476 -12.351083 21.461321 -16.706717 -3.582688 3.280291 2.850028 0.193848 -4.875264 -10.293089 13.931697 
3.560349 52.452095 12.237253 -9.024487 -14.026123 -56.000565 22.226799 3.301265 -0.858680 4.859965 1.433757 -4.326986 28.745340 19.344212 9.132302 33.450325 1.945149 17.637680 -25.772305 -4.972105 -0.264179 -56.619228 -3.563380 -3.106180 -81.959526 5.000000 -5.729396 2.605445 -22.863443 45.000000 14.155562 -8.872252 0.465139 90.000000 44.365059 45.000000 92.990349 -3.696431 0.357509 12.295122 -30.000000 -45.000000 19.749733 18.746618 13.169253 8.921913 -3.641725 -0.693999 -4.960114 5.088949 -12.365121 21.422556 -16.609182 -3.573667 3.072970 2.759921 0.189897 -4.771378 -10.324738 13.998407 
3.606794 52.454990 12.203552 -8.949328 -13.989010 -55.966175 22.233109 3.423476 -0.874930 4.851184 1.404472 -4.346513 28.710711 19.312943 9.102688 33.421688 1.944938 17.657196 -25.761993 -5.025115 -0.257937 -56.548294 -3.591919 -3.096516 -82.012367 5.000000 -5.692048 2.590504 -22.898121 45.000000 14.136111 -8.882005 0.465644 90.000000 44.394650 45.000000 92.980957 -3.715949 0.347813 12.255282 -30.000000 -45.000000 19.571941 18.823488 13.090184 8.960853 -3.651230 -0.677806 -5.010533 5.055097 -12.378613 21.390263 -16.519842 -3.578365 2.846146 2.689093 0.175438 -4.662656 -10.322369 14.100110 
3.653779 52.456860 12.178773 -8.881882 -13.966036 -55.979301 22.261690 3.552342 -0.855443 4.833107 1.384990 -4.326988 28.692518 19.301624 9.085792 33.373650 1.889412 17.627260 -25.771938 -5.064124 -0.259952 -56.481026 -3.574757 -3.103644 -82.080643 5.000000 -5.656250 2.563144 -22.912628 45.000000 14.126585 -8.911261 0.467158 90.000000 44.400234 45.000000 92.980530 -3.715998 0.360822 12.250457 -30.000000 -45.000000 19.434893 18.872364 13.067929 9.007950 -3.689806 -0.703045 -5.052763 5.033764 -12.345376 21.355204 -16.483835 -3.595039 2.636019 2.625454 0.152227 -4.520986 -10.227897 14.125982 
3.702065 52.458458 12.162278 -8.815866 -13.948537 -55.994793 22.290117 3.693659 -0.841363 4.815017 1.365506 -4.297464 28.687502 19.291197 9.074846 33.335739 1.833767 17.607101 -25.791649 -5.103135 -0.261967 -56.413769 -3.557584 -3.110734 -82.135651 5.000000 -5.635807 2.539918 -22.926729 45.000000 14.117141 -8.950272 0.469176 90.000000 44.404480 45.000000 92.989632 -3.696508 0.378137 12.214111 -30.000000 -45.000000 19.303852 18.914667 13.032837 9.068011 -3.700001 -0.678559 -5.113303 5.001526 -12.348412 21.331144 -16.450193 -3.625638 2.417603 2.552234 0.129098 -4.442376 -10.104281 14.149585 
3.751141 52.461739 12.153453 -8.782371 -13.911386 -56.012165 22.308949 3.822448 -0.821633 4.797167 1.336257 -4.277940 28.656332 19.260801 9.057645 33.338665 1.815445 17.577509 -25.811409 -5.151897 -0.264486 -56.345665 -3.548525 -3.123139 -82.201019 5.000000 -5.576137 2.548171 -22.925863 45.000000 14.107615 -8.979527 0.470690 90.000000 44.415195 45.000000 92.999413 -3.686701 0.377525 12.227748 -30.000000 -45.000000 19.151642 18.921049 12.999566 9.128251 -3.706751 -0.692863 -5.121692 5.041204 -12.331341 21.311844 -16.411297 -3.694048 2.214902 2.486692 0.106929 -4.303975 -10.016522 14.149383 
3.801179 52.466549 12.151713 -8.739979 -13.872080 -56.020641 22.327354 3.942428 -0.805235 4.769095 1.306984 -4.268176 28.600657 19.219973 9.029505 33.392456 1.834361 17.548540 -25.821402 -5.200659 -0.267005 -56.297112 -3.540510 -3.134320 -82.254173 5.000000 -5.502318 2.588275 -22.919273 45.000000 14.098011 -8.999032 0.471699 90.000000 44.421646 45.000000 93.000031 -3.667124 0.356930 12.256638 -30.000000 -45.000000 18.996237 18.902367 12.947845 9.232948 -3.711285 -0.661722 -5.184406 5.001482 -12.305851 21.312708 -16.412682 -3.794570 1.991574 2.420974 0.083821 -4.197518 -9.919398 14.141504 
3.850113 52.470387 12.155609 -8.715701 -13.827339 -56.024475 22.345613 4.071556 -0.785336 4.750800 1.277712 -4.248644 28.543425 19.169590 9.002836 33.436462 1.853283 17.519260 -25.841166 -5.249422 -0.269523 -56.238495 -3.537306 -3.137938 -82.308243 5.000000 -5.421600 2.623602 -22.916094 45.000000 14.078641 -9.018537 0.472708 90.000000 44.437820 45.000000 93.010399 -3.657253 0.337764 12.276805 -30.000000 -45.000000 18.842978 18.894627 12.908568 9.339198 -3.710799 -0.640031 -5.254541 4.966282 -12.309360 21.314098 -16.413342 -3.894797 1.766412 2.362060 0.051155 -4.089748 -9.806766 14.129128 
3.897448 52.471085 12.165598 -8.707870 -13.781560 -56.050911 22.344851 4.170413 -0.767282 4.752630 1.258248 -4.229124 28.520332 19.147806 8.974996 33.428699 1.835249 17.460699 -25.870649 -5.288432 -0.271537 -56.221516 -3.503913 -3.152267 -82.362854 5.000000 -5.409214 2.588960 -22.860994 45.000000 14.059598 -9.077051 0.475734 90.000000 44.432720 45.000000 92.999832 -3.608610 0.353862 12.359086 -30.000000 -45.000000 18.712254 18.852358 12.855062 9.445715 -3.728469 -0.716984 -5.329186 5.056216 -12.281745 21.312654 -16.452015 -4.055792 1.589484 2.320504 0.050765 -3.927236 -9.612698 14.098288 
3.942179 52.470577 12.180083 -8.698647 -13.730382 -56.075069 22.333607 4.272988 -0.758978 4.744668 1.238781 -4.199836 28.500635 19.126925 8.956343 33.418369 1.807785 17.411583 -25.890369 -5.327442 -0.273552 -56.194767 -3.469971 -3.167767 -82.419022 5.000000 -5.389006 2.545526 -22.809696 45.000000 14.040557 -9.135564 0.478760 90.000000 44.419266 45.000000 92.989212 -3.559971 0.369915 12.447823 -30.000000 -45.000000 18.601889 18.818390 12.792950 9.531176 -3.776929 -0.745198 -5.402135 5.148102 -12.262689 21.324593 -16.472992 -4.212185 1.393978 2.261169 0.059259 -3.775340 -9.517733 14.069837 
3.981093 52.470497 12.196860 -8.711839 -13.690151 -56.101601 22.342846 4.368168 -0.732010 4.736055 1.219283 -4.180308 28.479364 19.096495 8.939149 33.423985 1.798851 17.372234 -25.919807 -5.356699 -0.275063 -56.206562 -3.440928 -3.194413 -82.462418 5.000000 -5.360743 2.497774 -22.771030 45.000000 14.011671 -9.184325 0.481281 90.000000 44.416328 45.000000 92.979095 -3.501523 0.370240 12.499329 -30.000000 -45.000000 18.501419 18.747885 12.745751 9.634615 -3.778529 -0.782176 -5.451375 5.164721 -12.233980 21.371658 -16.530043 -4.361973 1.228635 2.222078 0.059735 -3.675344 -9.348344 14.058295 
